<?xml version="1.0" encoding="UTF-8"?>
<svg version="1.1" xmlns="http://www.w3.org/2000/svg" width="500" height="500">
<path d="M0 0 C165 0 330 0 500 0 C500 165 500 330 500 500 C335 500 170 500 0 500 C0 335 0 170 0 0 Z " fill="#FEFEFE" transform="translate(0,0)"/>
<path d="M0 0 C0.93231445 -0.00571014 1.86462891 -0.01142029 2.82519531 -0.01730347 C3.84605728 -0.01842133 4.86691925 -0.01953918 5.91871643 -0.02069092 C7.53370529 -0.02813828 7.53370529 -0.02813828 9.18132019 -0.03573608 C12.74947239 -0.05036349 16.31758017 -0.05716 19.88575745 -0.06268311 C22.36053469 -0.06843321 24.83531191 -0.07419096 27.31008911 -0.07995605 C32.50108549 -0.09046709 37.69206637 -0.09630938 42.8830719 -0.09979248 C49.542578 -0.10528343 56.20181455 -0.12932388 62.86126614 -0.15776443 C67.97327275 -0.17636288 73.08522994 -0.18159488 78.19726753 -0.18312836 C80.65292032 -0.18616073 83.10857212 -0.19420881 85.56419182 -0.20731354 C88.99502592 -0.22431851 92.42535759 -0.22250739 95.85621643 -0.21600342 C97.38447304 -0.22982559 97.38447304 -0.22982559 98.94360352 -0.243927 C99.87873779 -0.23835785 100.81387207 -0.2327887 101.77734375 -0.22705078 C102.58831229 -0.22851734 103.39928083 -0.2299839 104.23482418 -0.2314949 C107.03877508 0.23884016 108.40969939 1.18513236 110.4521637 3.14044189 C111.4619644 8.18944541 110.19471977 10.95110989 107.4521637 15.07794189 C106.46747643 16.44328373 105.47236457 17.80142825 104.4521637 19.14044189 C104.7821637 18.81044189 105.1121637 18.48044189 105.4521637 18.14044189 C112.97455176 17.90163592 112.97455176 17.90163592 115.4521637 19.14044189 C115.1221637 20.46044189 114.7921637 21.78044189 114.4521637 23.14044189 C112.4721637 23.14044189 110.4921637 23.14044189 108.4521637 23.14044189 C110.4321637 24.13044189 112.4121637 25.12044189 114.4521637 26.14044189 C114.8852887 25.19169189 115.3184137 24.24294189 115.7646637 23.26544189 C117.4521637 20.14044189 117.4521637 20.14044189 120.4521637 18.14044189 C124.76541719 17.66119151 126.75803152 17.66784126 130.3896637 20.14044189 C131.0702887 20.80044189 131.7509137 21.46044189 132.4521637 22.14044189 C133.1534137 21.48044189 133.8546637 20.82044189 134.5771637 20.14044189 C137.94789953 17.79558218 139.43351968 17.62742351 143.4521637 18.14044189 C145.8271637 19.14044189 145.8271637 19.14044189 147.4521637 20.14044189 C147.1221637 21.13044189 146.7921637 22.12044189 146.4521637 23.14044189 C144.1421637 23.14044189 141.8321637 23.14044189 139.4521637 23.14044189 C139.1221637 24.79044189 138.7921637 26.44044189 138.4521637 28.14044189 C139.1946637 28.28481689 139.9371637 28.42919189 140.7021637 28.57794189 C142.97244109 29.04231682 145.20975849 29.55907758 147.4521637 30.14044189 C146.4521637 33.14044189 146.4521637 33.14044189 144.4521637 34.14044189 C138.20422981 34.60325181 138.20422981 34.60325181 135.0146637 32.64044189 C134.4990387 32.14544189 133.9834137 31.65044189 133.4521637 31.14044189 C132.5240387 31.60450439 132.5240387 31.60450439 131.5771637 32.07794189 C127.55735557 34.08784596 125.04460089 34.4571617 120.4521637 34.14044189 C118.0146637 32.64044189 118.0146637 32.64044189 116.4521637 31.14044189 C115.7096637 31.88294189 115.7096637 31.88294189 114.9521637 32.64044189 C111.29303777 34.83591745 108.69045822 34.41388025 104.4521637 34.14044189 C103.7921637 33.81044189 103.1321637 33.48044189 102.4521637 33.14044189 C102.7821637 31.82044189 103.1121637 30.50044189 103.4521637 29.14044189 C105.7621637 29.80044189 108.0721637 30.46044189 110.4521637 31.14044189 C109.5431504 28.81673577 109.5431504 28.81673577 106.5146637 27.70294189 C103.4521637 26.14044189 103.4521637 26.14044189 101.4521637 23.14044189 C100.4621637 23.80044189 99.4721637 24.46044189 98.4521637 25.14044189 C98.1427887 24.33606689 97.8334137 23.53169189 97.5146637 22.70294189 C96.68881025 20.24963785 96.68881025 20.24963785 95.4521637 19.14044189 C91.30939495 18.89311052 91.30939495 18.89311052 87.4521637 20.14044189 C87.4521637 19.48044189 87.4521637 18.82044189 87.4521637 18.14044189 C85.8021637 18.14044189 84.1521637 18.14044189 82.4521637 18.14044189 C82.4521637 23.42044189 82.4521637 28.70044189 82.4521637 34.14044189 C84.1021637 34.14044189 85.7521637 34.14044189 87.4521637 34.14044189 C87.4521637 30.84044189 87.4521637 27.54044189 87.4521637 24.14044189 C89.10831027 23.75825422 90.77673394 23.42649088 92.4521637 23.14044189 C93.98167396 24.66995216 93.8060988 26.07404603 93.9521637 28.20294189 C93.88101187 33.17566377 92.12292697 35.61108679 88.86231995 39.21856689 C81.49830165 45.09068521 75.48631339 46.87911278 66.12086487 46.77154541 C65.02382233 46.77870071 63.92677979 46.78585602 62.79649353 46.79322815 C59.19560741 46.81004214 55.59597854 46.79076015 51.99513245 46.76934814 C49.48408912 46.77017721 46.97304586 46.77263799 44.46200562 46.7766571 C39.21257594 46.77950971 33.9634692 46.76539391 28.71412659 46.73736572 C22.65002213 46.70523644 16.58656019 46.70536635 10.52240962 46.72258049 C4.67412176 46.73844784 -1.17392937 46.73161726 -7.02220726 46.71464348 C-9.50575419 46.70945681 -11.98931964 46.70994931 -14.47286415 46.71618843 C-17.93682101 46.72162679 -21.3996785 46.7013112 -24.86351013 46.67388916 C-26.40567955 46.68367798 -26.40567955 46.68367798 -27.97900391 46.69366455 C-34.87908155 46.60058651 -34.87908155 46.60058651 -38.20779419 44.31022644 C-39.5478363 42.14044189 -39.5478363 42.14044189 -39.6728363 38.89044189 C-38.23678433 34.10360198 -35.75045452 30.9111086 -32.5478363 27.14044189 C-32.2590863 27.75919189 -31.9703363 28.37794189 -31.6728363 29.01544189 C-30.61063589 31.27369954 -30.61063589 31.27369954 -28.5478363 33.14044189 C-24.40274198 33.42646351 -24.40274198 33.42646351 -20.5478363 32.14044189 C-20.5478363 32.80044189 -20.5478363 33.46044189 -20.5478363 34.14044189 C-18.8978363 34.14044189 -17.2478363 34.14044189 -15.5478363 34.14044189 C-15.5478363 28.86044189 -15.5478363 23.58044189 -15.5478363 18.14044189 C-17.1978363 18.14044189 -18.8478363 18.14044189 -20.5478363 18.14044189 C-20.52463318 18.83911377 -20.50143005 19.53778564 -20.4775238 20.25762939 C-20.45045349 21.62274658 -20.45045349 21.62274658 -20.4228363 23.01544189 C-20.39963318 23.92036377 -20.37643005 24.82528564 -20.3525238 25.75762939 C-20.5478363 28.14044189 -20.5478363 28.14044189 -22.5478363 30.14044189 C-23.5378363 30.14044189 -24.5278363 30.14044189 -25.5478363 30.14044189 C-27.3924432 26.45122811 -27.4092891 23.06798656 -26.5478363 19.14044189 C-21.09882044 9.10345748 -12.03246147 0.04415604 0 0 Z " fill="#030303" transform="translate(148.54783630371094,227.85955810546875)"/>
<path d="M0 0 C1.65 0 3.3 0 5 0 C5 1.65 5 3.3 5 5 C7.64 4.67 10.28 4.34 13 4 C14.485 7.96 14.485 7.96 16 12 C17.32 9.36 18.64 6.72 20 4 C21.65 4 23.3 4 25 4 C19.57142857 21.42857143 19.57142857 21.42857143 15 26 C11.875 26.125 11.875 26.125 9 26 C8.4375 24.0625 8.4375 24.0625 8 22 C9 21 9 21 11.5625 20.9375 C12.7690625 20.9684375 12.7690625 20.9684375 14 21 C13.2690065 19.01373486 12.51456327 17.03608651 11.75 15.0625 C11.33234375 13.96035156 10.9146875 12.85820312 10.484375 11.72265625 C9.29217133 8.85102542 9.29217133 8.85102542 6.828125 8.12109375 C6.22484375 8.08113281 5.6215625 8.04117188 5 8 C5 10.64 5 13.28 5 16 C6.32 16.33 7.64 16.66 9 17 C9 17.99 9 18.98 9 20 C2.51747312 20.36693548 2.51747312 20.36693548 0.28125 18.78125 C-1.3746715 16.47911524 -1.3094704 15.11781917 -1.1875 12.3125 C-1.16042969 11.50425781 -1.13335937 10.69601563 -1.10546875 9.86328125 C-1.05326172 8.94095703 -1.05326172 8.94095703 -1 8 C-1.66 8 -2.32 8 -3 8 C-2.67 9.98 -2.34 11.96 -2 14 C-5.3 14.33 -8.6 14.66 -12 15 C-9.69 15 -7.38 15 -5 15 C-5 16.32 -5 17.64 -5 19 C-8.09173752 20.54586876 -10.59429552 20.29359521 -14 20 C-16.4375 18.5 -16.4375 18.5 -18 16 C-18.80414661 11.95439643 -18.63828902 9.02126244 -16.4375 5.5 C-13.11203064 3.45355731 -10.83693587 3.58142518 -7 4 C-6.01 4.66 -5.02 5.32 -4 6 C-3.01 5.67 -2.02 5.34 -1 5 C-0.67 3.35 -0.34 1.7 0 0 Z " fill="#272727" transform="translate(322,242)"/>
<path d="M0 0 C0.66 0.33 1.32 0.66 2 1 C1.67 2.32 1.34 3.64 1 5 C-0.98 5 -2.96 5 -5 5 C-3.02 5.99 -1.04 6.98 1 8 C1.433125 7.05125 1.86625 6.1025 2.3125 5.125 C4 2 4 2 7 0 C11.3132535 -0.47925039 13.30586782 -0.47260063 16.9375 2 C17.9584375 2.99 17.9584375 2.99 19 4 C20.051875 3.01 20.051875 3.01 21.125 2 C24.49573583 -0.34485971 25.98135598 -0.51301839 30 0 C32.375 1 32.375 1 34 2 C33.67 2.99 33.34 3.98 33 5 C30.69 5 28.38 5 26 5 C25.67 6.65 25.34 8.3 25 10 C25.7425 10.144375 26.485 10.28875 27.25 10.4375 C29.52027739 10.90187492 31.75759479 11.41863569 34 12 C33 15 33 15 31 16 C24.75206612 16.46280992 24.75206612 16.46280992 21.5625 14.5 C21.046875 14.005 20.53125 13.51 20 13 C19.38125 13.309375 18.7625 13.61875 18.125 13.9375 C14.10519188 15.94740406 11.5924372 16.31671981 7 16 C4.5625 14.5 4.5625 14.5 3 13 C2.505 13.495 2.01 13.99 1.5 14.5 C-2.15912593 16.69547556 -4.76170548 16.27343836 -9 16 C-9.66 15.67 -10.32 15.34 -11 15 C-10.67 13.68 -10.34 12.36 -10 11 C-7.69 11.66 -5.38 12.32 -3 13 C-3.89955142 10.67241093 -3.89955142 10.67241093 -6.9375 9.6875 C-10 8 -10 8 -11.375 5.3125 C-11.58125 4.549375 -11.7875 3.78625 -12 3 C-8.22988958 -0.77011042 -5.04968446 -0.32578609 0 0 Z " fill="#0A0A0A" transform="translate(262,246)"/>
<path d="M0 0 C1.65 0 3.3 0 5 0 C5.99 2.64 6.98 5.28 8 8 C8.99 5.36 9.98 2.72 11 0 C12.65 0 14.3 0 16 0 C16.99 2.31 17.98 4.62 19 7 C20.54571278 4.68143083 21.79618552 2.49361571 23 0 C24.32 0 25.64 0 27 0 C25.90301833 5.69139902 24.45946923 10.74567937 22 16 C20.35 16 18.7 16 17 16 C16.01 13.36 15.02 10.72 14 8 C13.01 10.64 12.02 13.28 11 16 C9.02 16 7.04 16 5 16 C4.16280617 13.70967689 3.3301071 11.41789043 2.5 9.125 C2.14228516 8.14853516 2.14228516 8.14853516 1.77734375 7.15234375 C0 2.2265625 0 2.2265625 0 0 Z " fill="#EFEFEF" transform="translate(203,246)"/>
<path d="M0 0 C2.375 1.0625 2.375 1.0625 4 3 C5.10373378 6.97344161 5.41543583 9.08999772 3.6875 12.875 C2 15 2 15 0 16 C-7.0521327 16.56872038 -7.0521327 16.56872038 -10.5 14.5 C-12.61385602 10.97690664 -12.9352036 8.00332769 -12 4 C-8.49808738 -0.24474257 -5.33531365 -0.67903992 0 0 Z " fill="#F2F2F2" transform="translate(199,246)"/>
<path d="M0 0 C1.98 0 3.96 0 6 0 C6 3.3 6 6.6 6 10 C6.53625 9.34 7.0725 8.68 7.625 8 C10 6 10 6 13.25 5.75 C14.1575 5.8325 15.065 5.915 16 6 C15.319375 6.7425 14.63875 7.485 13.9375 8.25 C11.79040955 10.71223628 11.79040955 10.71223628 12.0625 13 C13.20752674 15.44272372 14.60387829 17.69336414 16 20 C16 20.66 16 21.32 16 22 C14.02 22 12.04 22 10 22 C9.71125 21.360625 9.4225 20.72125 9.125 20.0625 C8.17176549 17.84793921 8.17176549 17.84793921 6 17 C6 18.65 6 20.3 6 22 C4.02 22 2.04 22 0 22 C0 14.74 0 7.48 0 0 Z " fill="#E4E4E4" transform="translate(153,240)"/>
<path d="M0 0 C1.65 0 3.3 0 5 0 C5.99 2.64 6.98 5.28 8 8 C9.32 5.36 10.64 2.72 12 0 C13.65 0 15.3 0 17 0 C11.57142857 17.42857143 11.57142857 17.42857143 7 22 C3.875 22.125 3.875 22.125 1 22 C0.4375 20.0625 0.4375 20.0625 0 18 C1 17 1 17 3.5625 16.9375 C4.7690625 16.9684375 4.7690625 16.9684375 6 17 C5.566875 15.85660156 5.13375 14.71320313 4.6875 13.53515625 C4.12491398 12.04430329 3.56241865 10.55341611 3 9.0625 C2.57074219 7.93038086 2.57074219 7.93038086 2.1328125 6.77539062 C0 1.11328125 0 1.11328125 0 0 Z " fill="#121212" transform="translate(330,246)"/>
<path d="M0 0 C2.33333333 0 4.66666667 0 7 0 C7.969375 -0.061875 8.93875 -0.12375 9.9375 -0.1875 C13 0 13 0 14.6796875 1.09375 C16.64803359 3.93562246 16.28870956 6.28011134 16.1875 9.6875 C16.16042969 10.86699219 16.13335937 12.04648437 16.10546875 13.26171875 C16.07066406 14.16535156 16.03585938 15.06898438 16 16 C14.35 16 12.7 16 11 16 C10.67 12.7 10.34 9.4 10 6 C8.68 6 7.36 6 6 6 C5.67 9.3 5.34 12.6 5 16 C3.35 16 1.7 16 0 16 C0 10.72 0 5.44 0 0 Z " fill="#F6F6F6" transform="translate(170,246)"/>
<path d="M0 0 C1.65 0 3.3 0 5 0 C5 0.66 5 1.32 5 2 C5.99 1.34 6.98 0.68 8 0 C11.625 0.25 11.625 0.25 15 1 C16.44207941 3.88415883 16.09394887 6.41721528 16.0625 9.625 C16.05347656 10.81351562 16.04445312 12.00203125 16.03515625 13.2265625 C16.02355469 14.14179688 16.01195312 15.05703125 16 16 C14.35 16 12.7 16 11 16 C11 12.37 11 8.74 11 5 C9.35 5.33 7.7 5.66 6 6 C5.67 9.3 5.34 12.6 5 16 C3.35 16 1.7 16 0 16 C0 10.72 0 5.44 0 0 Z " fill="#EFEFEF" transform="translate(135,246)"/>
<path d="M0 0 C0.66 0.33 1.32 0.66 2 1 C1.67 2.32 1.34 3.64 1 5 C-0.98 5 -2.96 5 -5 5 C-2.36 6.32 0.28 7.64 3 9 C2.6875 11.375 2.6875 11.375 2 14 C-2.05358424 16.70238949 -4.18310104 16.22937614 -9 16 C-9.66 15.67 -10.32 15.34 -11 15 C-10.67 13.68 -10.34 12.36 -10 11 C-7.69 11.66 -5.38 12.32 -3 13 C-3.89955142 10.67241093 -3.89955142 10.67241093 -6.9375 9.6875 C-10 8 -10 8 -11.375 5.3125 C-11.58125 4.549375 -11.7875 3.78625 -12 3 C-8.22988958 -0.77011042 -5.04968446 -0.32578609 0 0 Z " fill="#171717" transform="translate(262,246)"/>
<path d="M0 0 C1.65 0 3.3 0 5 0 C5 1.65 5 3.3 5 5 C6.32 5 7.64 5 9 5 C9 5.99 9 6.98 9 8 C7.68 8 6.36 8 5 8 C5 10.64 5 13.28 5 16 C6.32 16.33 7.64 16.66 9 17 C9 17.99 9 18.98 9 20 C2.5368928 20.36583626 2.5368928 20.36583626 0.3203125 18.85546875 C-1.5028476 16.29333547 -1.58306213 14.24379954 -1.8125 11.125 C-1.90144531 10.09632813 -1.99039062 9.06765625 -2.08203125 8.0078125 C-1.99637598 4.86711909 -1.34512084 2.81488609 0 0 Z " fill="#1D1D1D" transform="translate(322,242)"/>
<path d="M0 0 C2.375 1 2.375 1 4 2 C3.67 2.99 3.34 3.98 3 5 C0.69 5 -1.62 5 -4 5 C-4.33 6.65 -4.66 8.3 -5 10 C-4.2575 10.144375 -3.515 10.28875 -2.75 10.4375 C-0.47972261 10.90187492 1.75759479 11.41863569 4 12 C3 15 3 15 1 16 C-3.12108352 16.39625803 -5.61997752 16.16582799 -9.4375 14.5 C-12.08406403 11.91798631 -12.472054 11.46462916 -12.75 8 C-12.4756138 4.49830945 -12.08738265 4.08322157 -9.375 1.5 C-5.81315532 -0.08304208 -3.83760291 -0.5005569 0 0 Z " fill="#121212" transform="translate(292,246)"/>
<path d="M0 0 C3.60964568 0 5.72921858 0.03087958 9 1 C8.34 1.66 7.68 2.32 7 3 C7.99 3.66 8.98 4.32 10 5 C8.68 5.33 7.36 5.66 6 6 C5.67 9.3 5.34 12.6 5 16 C3.35 16 1.7 16 0 16 C0 10.72 0 5.44 0 0 Z " fill="#F3F3F3" transform="translate(231,246)"/>
<path d="M0 0 C1.65 0 3.3 0 5 0 C5 5.28 5 10.56 5 16 C3.35 16 1.7 16 0 16 C0 10.72 0 5.44 0 0 Z " fill="#101010" transform="translate(297,246)"/>
<path d="M0 0 C3.46679688 0.04882812 3.46679688 0.04882812 6.93359375 0.09765625 C6.93359375 3.39765625 6.93359375 6.69765625 6.93359375 10.09765625 C6.27359375 9.43765625 5.61359375 8.77765625 4.93359375 8.09765625 C3.77859375 8.09765625 2.62359375 8.09765625 1.43359375 8.09765625 C0.27859375 8.09765625 -0.87640625 8.09765625 -2.06640625 8.09765625 C-2.72640625 7.43765625 -3.38640625 6.77765625 -4.06640625 6.09765625 C-3.34205084 0.15794191 -3.34205084 0.15794191 0 0 Z " fill="#ECECEC" transform="translate(290.06640625,249.90234375)"/>
<path d="M0 0 C0 4.95 0 9.9 0 15 C-6.04195804 7.44755245 -6.04195804 7.44755245 -5.8125 5 C-4.62174919 2.06892109 -3.32071026 0 0 0 Z " fill="#0F0F0F" transform="translate(170,247)"/>
<path d="M0 0 C2.125 0.375 2.125 0.375 4 1 C5.125 5.75 5.125 5.75 4 8 C2.35 8 0.7 8 -1 8 C-1.625 5.125 -1.625 5.125 -2 2 C-1.34 1.34 -0.68 0.68 0 0 Z " fill="#F1F1F1" transform="translate(271,250)"/>
<path d="M0 0 C2.125 0.375 2.125 0.375 4 1 C4.625 3.375 4.625 3.375 5 6 C4.34 6.66 3.68 7.32 3 8 C0.375 7.625 0.375 7.625 -2 7 C-2.125 4.625 -2.125 4.625 -2 2 C-1.34 1.34 -0.68 0.68 0 0 Z " fill="#0E0E0E" transform="translate(194,250)"/>
<path d="M0 0 C0.66 0.66 1.32 1.32 2 2 C1.34 3.32 0.68 4.64 0 6 C-3.465 4.02 -3.465 4.02 -7 2 C-7 1.67 -7 1.34 -7 1 C-4.69 1.33 -2.38 1.66 0 2 C0 1.34 0 0.68 0 0 Z " fill="#E6E6E6" transform="translate(263,249)"/>
<path d="M0 0 C1.98 0.495 1.98 0.495 4 1 C4 2.32 4 3.64 4 5 C2.35 4.67 0.7 4.34 -1 4 C-0.67 2.68 -0.34 1.36 0 0 Z " fill="#151515" transform="translate(298,239)"/>
<path d="M0 0 C1.98 0.66 3.96 1.32 6 2 C6 2.66 6 3.32 6 4 C3.03 3.505 3.03 3.505 0 3 C0 2.01 0 1.02 0 0 Z " fill="#DBDBDB" transform="translate(253,255)"/>
</svg>
